Coordinates
version=1
nRows=26
nColumns=22
inDegrees=yes

Units are S.I. units (second, meters, Newtons, ...)
If the header above contains a line with 'inDegrees', this indicates whether rotational values are in degrees (yes) or radians (no).

endheader
time	pelvis_tilt	pelvis_list	pelvis_rotation	pelvis_tx	pelvis_ty	pelvis_tz	hip_flexion_r	hip_adduction_r	hip_rotation_r	knee_angle_r	ankle_angle_r	subtalar_angle_r	hip_flexion_l	hip_adduction_l	hip_rotation_l	knee_angle_l	ankle_angle_l	subtalar_angle_l	lumbar_extension	lumbar_bending	lumbar_rotation
      3.17000000	     -3.36500835	     -2.50716757	   -374.01178287	      0.72639361	      0.93997549	     -0.44467648	     26.84409385	      5.34906145	    -23.56429770	    -30.80824660	      6.37104971	     -7.20465624	      8.10591578	    -11.90072687	      5.52058419	    -60.63522799	     -2.47497849	      8.11875801	     -0.26401456	     10.17461678	     -9.67883657
      3.18000000	     -3.40633575	     -2.56527169	   -375.01449567	      0.73360361	      0.94112910	     -0.43740600	     25.99827356	      6.19945384	    -22.85154768	    -30.31787555	      6.76339772	     -7.17412315	      9.50451746	    -11.78983724	      6.06723497	    -62.01329539	     -1.90515028	      7.14298442	     -0.32648177	     10.21167566	     -9.20999861
      3.19000000	     -3.43310871	     -2.59949668	   -376.05820788	      0.74061490	      0.94231194	     -0.43007903	     25.10509767	      7.03534534	    -22.05928876	    -29.77172062	      7.10833793	     -7.16904319	     10.82394260	    -11.63528627	      6.61052130	    -63.10801840	     -1.31810224	      6.22255745	     -0.40822371	     10.21297465	     -8.70966492
      3.20000000	     -3.45115009	     -2.61489417	   -377.13536593	      0.74741885	      0.94349666	     -0.42270617	     24.17389539	      7.85604747	    -21.19063213	    -29.17752887	      7.41183001	     -7.19658855	     12.07165398	    -11.45025185	      7.15335132	    -63.92599032	     -0.73593082	      5.38148753	     -0.50419422	     10.18556474	     -8.18927711
      3.21000000	     -3.46548329	     -2.61498178	   -378.24570338	      0.75401724	      0.94465461	     -0.41527710	     23.21362017	      8.66202616	    -20.24628200	    -28.54642881	      7.67607749	     -7.25595964	     13.24981475	    -11.24857170	      7.69174260	    -64.47475181	     -0.14366108	      4.64382413	     -0.60924110	     10.13372954	     -7.65452126
      3.22000000	     -3.49614345	     -2.60452712	   -379.38956169	      0.76039337	      0.94574390	     -0.40778602	     22.24751804	      9.46315630	    -19.21507532	    -27.88431672	      7.87866530	     -7.33306759	     14.38374670	    -11.05227194	      8.22300975	    -64.77179659	      0.47597253	      4.09809213	     -0.70454729	     10.06932184	     -7.11865816
      3.23000000	     -3.52775842	     -2.59425297	   -380.55785017	      0.76662826	      0.94676082	     -0.40021231	     21.24910232	     10.24845440	    -18.15850141	    -27.19793498	      8.10024274	     -7.44998686	     15.43677836	    -10.87754744	      8.74050953	    -64.80886199	      1.18115982	      3.49998460	     -0.79928307	      9.99726487	     -6.56876232
      3.24000000	     -3.60219987	     -2.58702720	   -381.75412535	      0.77263604	      0.94765070	     -0.39256615	     20.26924416	     11.04492006	    -17.02251661	    -26.48869399	      8.25138257	     -7.56271190	     16.47772803	    -10.75208795	      9.24629693	    -64.62669160	      1.93327588	      3.06793603	     -0.86157891	      9.93939634	     -6.03239277
      3.25000000	     -3.68706722	     -2.59187658	   -382.96587143	      0.77852761	      0.94844233	     -0.38482359	     19.25529528	     11.83445309	    -15.87602766	    -25.74973662	      8.40403717	     -7.71273298	     17.45028679	    -10.68094599	      9.73021552	    -64.21575153	      2.78147335	      2.53659495	     -0.91150182	      9.89210149	     -5.50403201
      3.26000000	     -3.81061057	     -2.61014883	   -384.19169397	      0.78421746	      0.94909424	     -0.37702199	     18.25050129	     12.63248656	    -14.68162495	    -24.99628623	      8.50922248	     -7.85988997	     18.40841429	    -10.67609186	     10.20058781	    -63.61515065	      3.66885867	      1.97493776	     -0.93602028	      9.87159057	     -4.99443368
      3.27000000	     -3.97746454	     -2.63213500	   -385.42553229	      0.78975246	      0.94960908	     -0.36914444	     17.25234959	     13.42669985	    -13.47061384	    -24.21776627	      8.57689659	     -7.99790346	     19.35488156	    -10.73771084	     10.64351011	    -62.82561993	      4.57650137	      1.35929292	     -0.91626650	      9.87156516	     -4.50538655
      3.28000000	     -4.13092002	     -2.66062266	   -386.65476323	      0.79517779	      0.95002860	     -0.36129637	     16.22477504	     14.17648814	    -12.28147831	    -23.45452961	      8.66863157	     -8.18050251	     20.22898262	    -10.81726464	     11.07021568	    -61.86268576	      5.54570403	      0.47898883	     -0.91711276	      9.88109073	     -4.02778135
      3.29000000	     -4.31783162	     -2.67798519	   -387.89196707	      0.80044491	      0.95031136	     -0.35344482	     15.22122510	     14.90111258	    -11.05591661	    -22.70002993	      8.72748754	     -8.33299149	     21.09774903	    -10.92233069	     11.47178491	    -60.75084324	      6.47140086	     -0.34447532	     -0.88457314	      9.89988753	     -3.56043907
      3.30000000	     -4.51488886	     -2.67198651	   -389.13909167	      0.80557987	      0.95048016	     -0.34563088	     14.23277380	     15.57283762	     -9.80725843	    -21.97106060	      8.77873519	     -8.47499941	     21.93795282	    -11.01537645	     11.84547055	    -59.49995697	      7.33839224	     -1.14165955	     -0.83708077	      9.91147548	     -3.09132120
      3.31000000	     -4.71288124	     -2.63186413	   -390.40239070	      0.81057893	      0.95054119	     -0.33790322	     13.27089276	     16.17575171	     -8.52724228	    -21.28972697	      8.83482866	     -8.60579293	     22.74570203	    -11.06433587	     12.19966171	    -58.12898281	      8.12387641	     -1.85959425	     -0.78355538	      9.90732654	     -2.60787678
      3.32000000	     -4.90281473	     -2.54936089	   -391.69084534	      0.81543523	      0.95050129	     -0.33028293	     12.34175415	     16.69890809	     -7.20598909	    -20.67205250	      8.90322656	     -8.72869674	     23.51697096	    -11.04709416	     12.53990355	    -56.65692507	      8.81336791	     -2.46707210	     -0.73040982	      9.87838512	     -2.10129192
      3.33000000	     -5.07663964	     -2.41860935	   -393.00639511	      0.82018706	      0.95037931	     -0.32276635	     11.43964683	     17.13089074	     -5.86084931	    -20.11463208	      8.99866975	     -8.85176670	     24.24459811	    -10.95265976	     12.86070966	    -55.09341645	      9.40433220	     -2.93348694	     -0.67612397	      9.81758259	     -1.57900927
      3.34000000	     -5.23788052	     -2.24016024	   -394.34617732	      0.82483021	      0.95017743	     -0.31536432	     10.57632305	     17.47738941	     -4.47575569	    -19.62402305	      9.10370955	     -8.97244754	     24.94038144	    -10.77106031	     13.19365438	    -53.46182618	      9.87827021	     -3.18127690	     -0.61603463	      9.72756018	     -1.03912531
      3.35000000	     -5.37155156	     -2.02207799	   -395.70165177	      0.82940571	      0.94992787	     -0.30807167	      9.73339766	     17.73627310	     -3.06001034	    -19.19329405	      9.21761507	     -9.09806719	     25.58495476	    -10.49837127	     13.55007583	    -51.76695651	     10.23831692	     -3.21167485	     -0.56289356	      9.60823773	     -0.49455996
      3.36000000	     -5.47807215	     -1.77295593	   -397.05799696	      0.83395992	      0.94963487	     -0.30086718	      8.90650011	     17.91361009	     -1.64173180	    -18.81303206	      9.34183635	     -9.22332780	     26.17618995	    -10.14225551	     13.94237036	    -50.01332011	     10.49061752	     -3.03552582	     -0.51170331	      9.46620451	      0.04244427
      3.37000000	     -5.55363701	     -1.50850392	   -398.39691638	      0.83852664	      0.94930970	     -0.29373809	      8.08421541	     18.01987652	     -0.24507023	    -18.47248756	      9.47349356	     -9.34355889	     26.70682743	     -9.71543659	     14.37790986	    -48.20404247	     10.63163534	     -2.68296436	     -0.46982400	      9.31130144	      0.54910899
      3.38000000	     -5.61026257	     -1.23308330	   -399.70580376	      0.84312235	      0.94893513	     -0.28665530	      7.27284521	     18.06640586	      1.09613848	    -18.15781611	      9.61623126	     -9.44904570	     27.19050290	     -9.24144970	     14.84122969	    -46.33934539	     10.66533906	     -2.21637329	     -0.42369399	      9.15158428	      1.02651141
      3.39000000	     -5.64700790	     -0.96285207	   -400.96802675	      0.84773578	      0.94851621	     -0.27960634	      6.46911184	     18.06976987	      2.36954797	    -17.87014931	      9.75385976	     -9.54403732	     27.62896158	     -8.74113647	     15.32482837	    -44.42811551	     10.56622150	     -1.66218720	     -0.38636510	      8.99443107	      1.44755445
      3.40000000	     -5.67933968	     -0.68936763	   -402.18758721	      0.85234585	      0.94801047	     -0.27255629	      5.68992602	     18.03697022	      3.55637784	    -17.60550184	      9.92635799	     -9.62835448	     28.04184529	     -8.24015173	     15.78641238	    -42.46753624	     10.39565531	     -1.13613032	     -0.33878638	      8.83835565	      1.85170556
      3.41000000	     -5.68798028	     -0.45493672	   -403.33959728	      0.85690783	      0.94747785	     -0.26552365	      4.90287189	     17.99391450	      4.65989840	    -17.36844461	     10.08643086	     -9.71024743	     28.40257804	     -7.75892188	     16.23114387	    -40.46704613	     10.10228347	     -0.51809095	     -0.33752993	      8.69757062	      2.17495620
      3.42000000	     -5.70291007	     -0.23748021	   -404.42906161	      0.86140014	      0.94685515	     -0.25848493	      4.14472139	     17.94673459	      5.66389996	    -17.15452841	     10.26465470	     -9.77989080	     28.75596247	     -7.31594320	     16.61445401	    -38.43503810	      9.71271582	      0.08656945	     -0.34037746	      8.57022150	      2.46202531
